<?xml version="1.0" standalone="no"?>
<!DOCTYPE svg PUBLIC "-//W3C//DTD SVG 20010904//EN"
 "http://www.w3.org/TR/2001/REC-SVG-20010904/DTD/svg10.dtd">
<svg version="1.0" xmlns="http://www.w3.org/2000/svg"
 width="418.000000pt" height="418.000000pt" viewBox="0 0 418.000000 418.000000"
 preserveAspectRatio="xMidYMid meet">
<metadata>
Created by potrace 1.14, written by Peter Selinger 2001-2017
</metadata>
<g transform="translate(0.000000,418.000000) scale(0.100000,-0.100000)"
fill="#000000" stroke="none">
<path d="M1905 3804 c-182 -28 -377 -84 -522 -151 -95 -43 -254 -99 -308 -109
-22 -4 -58 -16 -80 -27 l-40 -20 35 -10 c66 -17 149 0 370 76 264 92 264 92
256 79 -9 -15 -196 -104 -344 -163 -41 -16 -100 -43 -131 -59 l-58 -30 -63 20
c-57 18 -90 20 -346 20 l-284 0 0 -837 0 -838 -58 -95 c-32 -52 -73 -117 -90
-145 l-32 -50 27 -81 27 -82 -25 -30 c-45 -57 -129 -179 -129 -190 0 -5 8 -13
18 -17 9 -4 181 -10 382 -13 l366 -5 54 -80 c70 -103 230 -261 340 -336 183
-125 408 -217 604 -247 123 -19 355 -14 465 10 164 36 356 115 531 219 117 70
280 239 375 390 l30 47 295 1 c312 1 453 8 469 24 6 7 -16 46 -63 113 -81 115
-79 104 -43 224 l15 47 -76 123 c-41 68 -83 137 -93 153 -18 29 -19 69 -19
863 l0 832 -292 0 c-271 0 -297 -2 -347 -20 l-53 -21 -39 21 c-22 11 -128 59
-237 106 -206 90 -315 143 -296 144 11 0 28 -6 219 -73 296 -104 307 -107 363
-107 63 0 102 8 102 20 0 10 -57 31 -165 61 -44 13 -127 42 -185 67 -169 71
-318 122 -430 149 -87 20 -136 25 -285 28 -99 2 -193 1 -210 -1z m-1198 -534
c15 -21 72 -112 126 -202 197 -328 261 -435 307 -513 26 -44 87 -145 136 -226
49 -80 97 -158 106 -175 9 -16 21 -29 27 -29 16 0 121 164 151 235 14 36 68
136 118 224 51 87 92 161 92 163 0 2 44 76 97 164 102 166 151 251 180 307 9
17 20 32 23 32 4 0 22 -24 40 -52 63 -102 267 -444 302 -508 20 -36 72 -130
117 -210 45 -79 81 -151 81 -159 0 -19 120 -196 133 -196 5 0 74 108 153 240
79 132 168 281 198 330 30 50 71 117 91 150 192 321 231 386 258 423 l30 42
94 0 93 0 0 -806 0 -806 55 -78 c30 -43 55 -83 55 -89 0 -7 -43 -11 -135 -10
l-135 1 -65 104 -65 103 -2 468 -3 468 -79 -140 c-43 -77 -122 -216 -174 -310
-53 -93 -137 -242 -187 -330 -51 -88 -108 -189 -128 -225 -20 -36 -47 -83 -60
-104 l-24 -39 -45 69 c-24 38 -51 83 -59 99 -8 17 -59 104 -114 195 -54 91
-144 244 -201 340 -128 217 -215 360 -220 360 -2 0 -42 -66 -90 -147 -48 -82
-113 -191 -144 -243 -31 -52 -90 -151 -130 -220 -40 -69 -83 -142 -96 -162
-13 -20 -39 -65 -57 -100 -19 -35 -52 -92 -74 -127 l-41 -63 -37 58 c-20 31
-40 65 -43 73 -3 9 -49 90 -102 181 -114 195 -267 465 -314 552 -73 136 -148
268 -157 274 -5 3 -9 -188 -9 -462 l0 -467 -32 -56 c-18 -31 -47 -77 -66 -103
l-34 -48 -134 0 c-74 0 -134 3 -134 7 0 4 25 44 55 88 l56 81 -1 800 c0 440 3
803 6 807 4 4 47 7 95 7 l87 0 29 -40z m1368 -1635 c220 -3 414 -8 432 -11 29
-4 38 -15 90 -109 l58 -105 605 -1 605 0 -84 -40 c-57 -27 -98 -39 -127 -39
-36 0 -44 -3 -44 -18 0 -32 22 -42 95 -42 71 0 72 0 101 -37 17 -21 34 -44 38
-50 6 -10 -128 -13 -654 -13 l-661 0 -63 98 -64 99 -219 6 c-120 4 -264 7
-320 7 l-103 0 -67 -102 -68 -103 -657 -3 c-362 -1 -658 2 -658 6 0 12 61 92
70 92 9 0 54 69 49 75 -2 2 -31 16 -64 32 l-60 28 592 3 593 2 23 38 c13 20
41 69 61 107 39 75 61 98 85 91 9 -3 196 -7 416 -11z"/>
</g>
</svg>
